<?xml version="1.0" encoding="UTF-8"?>
<svg version="1.1" xmlns="http://www.w3.org/2000/svg" width="2000" height="2000">
<path d="M0 0 C660 0 1320 0 2000 0 C2000 660 2000 1320 2000 2000 C1340 2000 680 2000 0 2000 C0 1340 0 680 0 0 Z " fill="#FEFEFE" transform="translate(0,0)"/>
<path d="M0 0 C7.73280583 3.66627854 14.36944796 10.29264284 20.9453125 15.6953125 C24.45625632 18.57180812 28.01651398 21.37225499 31.625 24.125 C37.87444367 28.89492063 44.05902379 33.7429652 50.23388672 38.60888672 C53.15371048 40.90874237 56.07701893 43.20415945 59 45.5 C60.16668361 46.4166451 61.33335027 47.33331177 62.5 48.25 C63.0775 48.70375 63.655 49.1575 64.25 49.625 C69.5 53.75 69.5 53.75 71.24902344 55.12426758 C72.41890016 56.04343313 73.58882223 56.96254095 74.75878906 57.8815918 C77.62671157 60.13456094 80.4939099 62.38843723 83.359375 64.64453125 C89.88985886 69.78426392 96.43749359 74.90120342 103 80 C110.12329278 85.53450443 117.22696692 91.0930816 124.31445312 96.67333984 C127.20808827 98.95086206 130.10419323 101.22524007 133 103.5 C134.16667796 104.4166523 135.33334464 105.33331895 136.5 106.25 C137.0775 106.70375 137.655 107.1575 138.25 107.625 C168.875 131.6875 168.875 131.6875 199.5 155.75 C200.07782227 156.2039917 200.65564453 156.6579834 201.25097656 157.12573242 C202.41443323 158.03990015 203.57784489 158.95412516 204.74121094 159.8684082 C208.31076516 162.67355789 211.8820248 165.4765179 215.45458984 168.27783203 C217.21907967 169.66322287 218.9807633 171.05212095 220.7421875 172.44140625 C222.75646722 174.02893179 224.78125124 175.59621805 226.8203125 177.15234375 C236.07499368 184.29854252 243.24515624 191.73546871 247 203 C247.00054477 202.16031866 247.00108953 201.32063732 247.00165081 200.45551109 C247.01661806 180.02424029 247.05906267 159.59318772 247.13209057 139.1620388 C247.16674377 129.28166612 247.19209653 119.401433 247.19555664 109.52099609 C247.19859607 100.90919442 247.21908373 92.29764129 247.26052457 83.68593562 C247.28185819 79.12602664 247.29445335 74.56647102 247.28615379 70.00651169 C247.27861589 65.71355294 247.29442533 61.42131033 247.32806015 57.12848282 C247.33629664 55.55394348 247.33603949 53.97933298 247.32659721 52.40480042 C247.314964 50.25155919 247.33410455 48.10066076 247.36076355 45.94760132 C247.36352893 44.74373968 247.36629431 43.53987804 247.36914349 42.29953575 C248.21619692 37.8692366 249.8569181 36.19564055 253 33 C255.93092118 31.53453941 257.72891793 31.62079962 261 32 C263.69408257 33.43222967 265.99976662 35.28249049 268.375 37.1875 C269.06762939 37.72487793 269.76025879 38.26225586 270.47387695 38.81591797 C272.66452852 40.52561036 274.83499014 42.25797657 277 44 C277.6904541 44.5554248 278.3809082 45.11084961 279.09228516 45.68310547 C282.47027693 48.41009241 285.83362656 51.15443817 289.19140625 53.90625 C293.6523376 57.5494748 298.21497794 61.04879327 302.79296875 64.54296875 C307.98430911 68.5079328 313.10329566 72.56587334 318.23388672 76.60888672 C321.15371042 78.90874232 324.07699088 81.20419526 327 83.5 C330.45429037 86.21336594 333.90816051 88.92725356 337.359375 91.64453125 C343.88985886 96.78426392 350.43749359 101.90120342 357 107 C364.12329278 112.53450443 371.22696692 118.0930816 378.31445312 123.67333984 C381.20808827 125.95086206 384.10419323 128.22524007 387 130.5 C388.16667796 131.4166523 389.33334464 132.33331895 390.5 133.25 C391.0775 133.70375 391.655 134.1575 392.25 134.625 C397.5 138.75 397.5 138.75 399.24902344 140.12426758 C400.41890016 141.04343313 401.58882223 141.96254095 402.75878906 142.8815918 C405.62671157 145.13456094 408.4939099 147.38843723 411.359375 149.64453125 C417.8898598 154.78426465 424.43760393 159.90106042 431 165 C445.57022231 176.32504342 445.57022231 176.32504342 452.42578125 181.75927734 C453.96321644 182.97100899 455.51273816 184.16735534 457.0625 185.36328125 C466.49020303 192.77991176 474.58947633 201.21701472 476.37356102 213.59091151 C476.51388127 216.35085174 476.53839373 219.0862782 476.5146637 221.84968567 C476.52160922 222.89600794 476.52855475 223.94233021 476.53571075 225.02035922 C476.55390485 228.50183121 476.54373743 231.98261595 476.53344727 235.46411133 C476.54050927 237.96976224 476.54925546 240.47540889 476.55955505 242.98104858 C476.57969035 249.06415261 476.58108706 255.14698983 476.57292951 261.23009989 C476.56661656 266.17358213 476.56777834 271.11700988 476.57420158 276.06049156 C476.57510324 276.76541016 476.57600489 277.47032877 476.57693387 278.19660854 C476.57878514 279.62879956 476.5806477 281.06099056 476.58252143 282.49318155 C476.5990736 295.90126131 476.5904007 309.30923562 476.57353585 322.71730902 C476.55882105 334.9836214 476.57349676 347.24968923 476.60230602 359.51597015 C476.63169144 372.12162592 476.6426761 384.72716878 476.63312382 397.33285731 C476.63210128 398.75810061 476.63110667 400.18334393 476.6301403 401.60858727 C476.62966391 402.30978195 476.62918752 403.01097663 476.6286967 403.73341963 C476.62653253 408.673004 476.63633602 413.61248137 476.65091133 418.55204201 C476.67024491 425.19649593 476.66336981 431.84056687 476.63871193 438.48502731 C476.63368964 440.92595757 476.63723027 443.36692234 476.64986038 445.80782509 C476.66571375 449.13415788 476.65091154 452.45897241 476.62818909 455.78523254 C476.64002482 456.75603895 476.65186054 457.72684537 476.66405493 458.72707015 C476.60038195 463.29956818 476.49027998 465.35036372 473.66386318 469.09545422 C471 471 471 471 467.75 471.6875 C458.50020834 469.99170486 450.9823333 461.86867555 443.83203125 456.08203125 C440.40615927 453.31474992 436.93682368 450.61101982 433.4375 447.9375 C429.03766864 444.57248969 424.66330725 441.17819057 420.3125 437.75 C414.89125335 433.47892332 409.45053928 429.23362929 404 425 C398.0948894 420.41271232 392.2030719 415.80942811 386.328125 411.18359375 C381.56625344 407.4374425 376.78465416 403.71699161 372 400 C363.75317676 393.59265239 355.53681889 387.14755352 347.33203125 380.68652344 C340.23864574 375.10192914 333.12907006 369.53899315 326 364 C318.87670722 358.46549557 311.77303308 352.9069184 304.68554688 347.32666016 C301.79191173 345.04913794 298.89580677 342.77475993 296 340.5 C294.83332204 339.5833477 293.66665536 338.66668105 292.5 337.75 C291.63375 337.069375 291.63375 337.069375 290.75 336.375 C289 335 287.25 333.625 285.5 332.25 C284.92185547 331.79592773 284.34371094 331.34185547 283.74804688 330.87402344 C282.58716646 329.96153252 281.42700386 329.04812762 280.26757812 328.13378906 C277.26776384 325.77004339 274.25531727 323.42577077 271.21875 321.109375 C260.38764503 312.8121007 254.05512427 305.68997915 249 293 C248.99641747 294.56101535 248.99641747 294.56101535 248.99276257 296.15356636 C248.93398767 321.46673332 248.85811728 346.77980495 248.76428509 372.0928669 C248.71930513 384.33403793 248.6798955 396.57517973 248.65356445 408.81640625 C248.63060224 419.48491907 248.59722405 430.15333953 248.55129844 440.82177913 C248.52734234 446.47148251 248.50862917 452.12109429 248.50238609 457.77084732 C248.4963461 463.0879589 248.47638533 468.40483603 248.44572449 473.72186089 C248.43692688 475.67374355 248.43322524 477.62565683 248.43499184 479.57755852 C248.43664237 482.24257991 248.41996413 484.90688472 248.39872742 487.57180786 C248.40599878 488.73038604 248.40599878 488.73038604 248.41341704 489.91236985 C248.35077737 494.67549154 247.5065065 497.94536738 245 502 C242.46162055 504.0850974 241.13238513 504.00554322 237.828125 503.8671875 C233.02722053 502.77963567 230.28664972 500.71917906 226.5 497.6875 C225.80640381 497.14988037 225.11280762 496.61226074 224.39819336 496.05834961 C222.25258233 494.38786425 220.12421231 492.69758604 218 491 C217.36465332 490.49436523 216.72930664 489.98873047 216.07470703 489.46777344 C213.61592227 487.50878384 211.1608084 485.54547851 208.71459961 483.57080078 C204.05911999 479.8174988 199.3271942 476.17578956 194.5625 472.5625 C188.93207184 468.29021638 183.39908352 463.92348965 177.9375 459.4375 C172.07982772 454.62720225 166.09707635 450.03392367 160.00634766 445.52368164 C154.47168004 441.40418179 149.11967981 437.08612297 143.78466797 432.71264648 C138.2130251 428.15111146 132.5336895 423.75536548 126.80908203 419.38671875 C116.03096389 411.12494938 105.35543666 402.72748645 94.68554688 394.32666016 C91.79191173 392.04913794 88.89580677 389.77475993 86 387.5 C84.83332204 386.5833477 83.66665536 385.66668105 82.5 384.75 C81.63375 384.069375 81.63375 384.069375 80.75 383.375 C47.5 357.25 47.5 357.25 45.75097656 355.87573242 C44.58109984 354.95656687 43.41117777 354.03745905 42.24121094 353.1184082 C39.37328843 350.86543906 36.5060901 348.61156277 33.640625 346.35546875 C32.51043615 345.46612107 31.38022767 344.57679834 30.25 343.6875 C29.68643799 343.24365967 29.12287598 342.79981934 28.54223633 342.3425293 C25.18576169 339.70333381 21.81575375 337.08277789 18.43359375 334.4765625 C-8.27881435 313.88053406 -8.27881435 313.88053406 -12 300 C-12.4277965 295.94033485 -12.41371675 291.90689748 -12.39440918 287.82757568 C-12.40050028 286.61483105 -12.40659139 285.40208642 -12.41286707 284.15259194 C-12.42659407 280.80335617 -12.42696118 277.45461284 -12.4214921 274.10538626 C-12.41881466 270.48711888 -12.43336658 266.86891347 -12.44558716 263.25067139 C-12.46660913 256.17040051 -12.47118403 249.09021158 -12.46939927 242.00991318 C-12.4680907 236.25688605 -12.47190063 230.50388445 -12.47932434 224.75086212 C-12.48142354 223.09264763 -12.48352114 221.43443314 -12.48561716 219.77621865 C-12.48666069 218.95086965 -12.48770422 218.12552064 -12.48877937 217.27516106 C-12.50766665 201.67868225 -12.50663538 186.08225052 -12.49981004 170.48576501 C-12.49422832 156.21081179 -12.5150894 141.93603769 -12.54817051 127.66112635 C-12.58187786 113.00231744 -12.59708003 98.34359443 -12.59245348 83.68474603 C-12.59020674 75.45522815 -12.59548256 67.22587609 -12.62034607 58.9963913 C-12.64132039 51.99472596 -12.6449893 44.99331748 -12.62604648 37.99164173 C-12.61686678 34.41834832 -12.61581315 30.84553435 -12.63640213 27.27227783 C-12.65845224 23.40278135 -12.64195028 19.53400782 -12.62145996 15.66448975 C-12.63397781 14.52987737 -12.64649566 13.395265 -12.65939283 12.22627044 C-12.57301635 4.65992421 -12.57301635 4.65992421 -9.66428375 1.31003189 C-5.99094005 -0.49615613 -4.06882826 -0.67813804 0 0 Z " fill="#655BC9" transform="translate(768,748)"/>
</svg>
